  <svg width="10mm" height="10mm" viewBox="0 0 10 10" version="1.1" id="svg1" xmlns="http://www.w3.org/2000/svg">
    <defs id="defs1" />
    <g id="layer1">
      <path style="fill:#000000;stroke-width:0.0870928" d="m 3.3505491,9.6640073 c -0.1657396,-0.0407 -0.2438064,-0.112019 -0.2438064,-0.2227299 0,-0.068612 0.062702,-0.1682388 0.114562,-0.1820274 C 3.257521,9.24962 3.2479704,9.247775 2.9047926,9.198161 2.3286555,9.1148659 1.8139532,8.8136808 1.5330356,8.3954586 1.334475,8.0998465 1.3432941,8.2354527 1.3518227,5.6091695 l 0.00763,-2.3521892 0.073803,-0.1568125 C 1.6216438,2.699911 2.0694717,2.3506077 2.5907366,2.1973471 2.6801926,2.171044 2.8634923,2.1340817 2.9980705,2.1152057 L 3.2427552,2.0808849 3.2356992,1.4928374 3.2286433,0.90479041 2.9783138,0.89472201 C 2.7549728,0.88574121 2.7204341,0.87919553 2.6579858,0.83400813 2.5020806,0.72119742 2.5665333,0.52624957 2.7734818,0.48466686 c 0.1425035,-0.0286363 4.4249201,-0.0286363 4.5674224,0 0.2069498,0.0415839 0.2714018,0.23653056 0.115497,0.34934127 -0.062449,0.0451858 -0.096986,0.0517322 -0.3203263,0.0607136 l -0.2503306,0.0100684 -0.00716,0.58938947 -0.00716,0.5893891 0.204254,0.022979 c 0.7264655,0.081723 1.3611349,0.4745223 1.605447,0.9936207 l 0.073803,0.1568126 0.00763,2.352189 c 0.00852,2.6262837 0.01735,2.4906773 -0.1812093,2.7862894 -0.2809098,0.4182223 -0.7956127,0.7194074 -1.3717503,0.8027023 -0.3431727,0.049615 -0.3527288,0.051459 -0.3165106,0.061089 0.05129,0.013638 0.1145605,0.1131273 0.1145605,0.1801316 0,0.080524 -0.04889,0.1514506 -0.1328506,0.1927357 C 6.8096466,9.664155 6.6788128,9.666963 5.0978222,9.670342 4.1591659,9.672372 3.372889,9.6694877 3.3505403,9.663992 Z M 4.348464,9.4434939 c 0.00506,-0.025734 -0.00716,-0.054266 -0.027087,-0.063406 -0.041251,-0.018919 -0.6459863,-0.023442 -0.7112572,-0.00532 -0.043056,0.011953 -0.059147,0.087387 -0.024061,0.1127742 0.010331,0.00748 0.184047,0.011151 0.3860278,0.00817 0.3640077,-0.00538 0.3673172,-0.00584 0.3763795,-0.052216 z m 2.19426,0 c 0.00506,-0.025734 -0.00716,-0.054266 -0.027086,-0.063406 -0.041251,-0.018919 -0.6459862,-0.023442 -0.7112571,-0.00532 -0.043056,0.011953 -0.059146,0.087387 -0.024061,0.1127742 0.010331,0.00748 0.184047,0.011151 0.3860273,0.00817 0.3640088,-0.00538 0.3673177,-0.00584 0.3763799,-0.052216 z M 4.4572712,2.0140985 c 0.029588,-0.071457 0.1884602,-0.1978341 0.2487032,-0.1978341 0.01506,0 0.026147,-0.083118 0.026147,-0.1960159 V 1.4242332 H 4.6121842 c -0.097304,0 -0.1305318,-0.00974 -0.1760827,-0.051648 -0.064288,-0.059137 -0.0684,-0.083861 -0.025321,-0.1522713 0.047227,-0.075001 0.1555854,-0.090105 0.6464169,-0.090105 0.4908326,0 0.5991909,0.015105 0.6464172,0.090105 0.043074,0.06841 0.038968,0.093134 -0.025321,0.1522713 -0.045551,0.041899 -0.078779,0.051648 -0.1760827,0.051648 H 5.3822733 v 0.1960153 c 0,0.1128987 0.011081,0.1960159 0.026147,0.1960159 0.060239,0 0.219115,0.126377 0.2487026,0.1978341 l 0.031713,0.076588 H 5.9554435 6.2220522 V 1.4928383 0.89499035 H 5.057196 3.892342 v 0.59784795 0.597848 h 0.2666082 0.2666094 z" id="path1" />
    </g>
  </svg>